<svg xmlns="http://www.w3.org/2000/svg" viewBox="0 0 181.35 61.25"><defs><style>.cls-1{fill:#09b9f5;}</style></defs><g id="レイヤー_2" data-name="レイヤー 2"><g id="レイヤー_1-2" data-name="レイヤー 1"><path d="M121.57,55.62V56c0,4.09-2.59,5-4.89,5.21l-.4-1.14c1.16-.1,4-.35,4-3.29h-3.48v1.58h-1.19V55.62h2.33v-1h1.23v1Z"/><path d="M122.7,57.81V56.76h2.75v-1h1.06l0,1h1.39v1.05h-1.38l0,2.42c0,1-.85,1-1.37,1l-.66,0-.19-1c.3,0,.91,0,.93,0,.19,0,.23,0,.23-.2l0-1.32a6.79,6.79,0,0,1-2.42,2l-.6-.91a6.94,6.94,0,0,0,2.61-2Z"/><path d="M135.68,57.24v1.27H129.1V57.24Z"/><path d="M136.08,60.23A4.2,4.2,0,0,0,138.36,57h-1.93V55.86h2.06c0-.39,0-.63,0-1.28l1.27,0c0,.5,0,.74-.07,1.26h2.67v1.23a12.08,12.08,0,0,1-.33,3.24,1.4,1.4,0,0,1-1.5.79,6.93,6.93,0,0,1-1.1-.08l-.07-1.22a6.24,6.24,0,0,0,1,.09c.47,0,.56-.11.63-.44a15,15,0,0,0,.15-2V57h-1.58a5.72,5.72,0,0,1-2.67,4.16Z"/><path d="M150.06,57.24v1.27h-6.57V57.24Z"/><path d="M157.12,55c-.13,2.43-.69,5.21-5,6.11L151.59,60c3-.57,3.86-2,4.13-3.75h-4.64V55Z"/><path d="M164.6,56.64A4.79,4.79,0,0,1,163,60.12a7.09,7.09,0,0,1-3.42,1L159.19,60c2.1-.11,3.54-.57,3.95-2.23h-4.73V56.64Zm-.48-1.83v1.12H159V54.81Z"/><path d="M171.12,54.92a7.74,7.74,0,0,1-1.32,3.21,21,21,0,0,1,2.43,2.08l-1,1a24.52,24.52,0,0,0-2.15-2.17,9.27,9.27,0,0,1-2.92,2.12l-.69-1a7.85,7.85,0,0,0,2.64-1.8,6.32,6.32,0,0,0,1.42-2.27h-3.61V54.92Z"/><path d="M158.61,53.75a1,1,0,1,1-1.05-1A1,1,0,0,1,158.61,53.75Zm-1.57,0a.52.52,0,1,0,1,0,.52.52,0,1,0-1,0Z"/><rect x="126.3" y="8.51" width="7.46" height="43.8"/><rect x="126.3" y="8.51" width="7.46" height="43.8"/><path d="M105.5,18h7.44v1.59h.11a5.1,5.1,0,0,1,4-2.17c3.66,0,7.79,4.62,7.79,17.44,0,14-4,18-7.72,18a6.75,6.75,0,0,1-3.53-1.11h-.1v9.44h-8Zm12.15,16.86c0-2.37-.12-9.81-2.12-9.81s-2,7.81-2,9.81-.44,10.49,2.08,10.49c1.92,0,2.08-8.35,2.08-10.49"/><path d="M142.68,18h-7.46V46.17c0,4.61,3.14,6.71,6.66,6.71A5.11,5.11,0,0,0,147.09,49h.1v3.26h6.95V18h-7.46v24.6c0,1.76-.71,2.73-2,2.79s-1.87-1.22-2-2.79Z"/><path class="cls-1" d="M181.35,22.41v-3A1.46,1.46,0,0,0,179.9,18H172V10a1.46,1.46,0,0,0-1.45-1.46h-3A1.47,1.47,0,0,0,166.16,10v8h-7.87a1.46,1.46,0,0,0-1.45,1.46v3a1.45,1.45,0,0,0,1.45,1.45h7.87v7.71A1.47,1.47,0,0,0,167.62,33h3A1.46,1.46,0,0,0,172,31.57V23.86h7.87A1.45,1.45,0,0,0,181.35,22.41Z"/><path d="M163.8,30.76c-1.18-1.16-2.55-2.56-2.32-4.56a2.1,2.1,0,0,1,2.31-1.82l.26,0c2.1.17,2.11,2,2.11,4.38H172c0-6.12-2.48-10.79-8.26-10.79-4.92,0-8.18,3.2-8.18,9.46a10.89,10.89,0,0,0,2.71,7.24c1.77,1.77,2.89,2.62,4.66,4.22,1.93,1.76,3.18,3.15,3.19,4.37,0,1.87-.53,3-2.15,3-1,.05-2.54-.39-2.54-3V40.94h-5.87V44.5c0,4.39,2.36,8.38,8.18,8.38,5.29,0,8.26-3.27,8.26-9.66a10.24,10.24,0,0,0-2.73-7C167.82,34.5,166.06,33,163.8,30.76Z"/><rect x="47.35" y="8.68" width="7.43" height="43.63"/><path d="M100.94,18.29a5,5,0,0,0-2.19,2.48V18H91.37V52.31h7.38v-24c0-1.14.4-2.12,1.43-2.29l4.22-.72V17.44a6.61,6.61,0,0,0-3.46.85"/><path d="M46.11,46.24V29c0-4.66-.79-7.14-2-8.77a7.06,7.06,0,0,0-5.74-2.8c-5.65,0-7.52,4.29-8.38,8.12l1.85-13.27a1.07,1.07,0,0,1,.43-.73,1.2,1.2,0,0,1,.77-.27h.89V0H24.74a.45.45,0,0,0-.3.14,1,1,0,0,0-.07.33l-2,20.89-.16,2.77-.15-2.77L20.44,0h-7L11.85,21.36l-.16,2.77-.15-2.77L9.54.47A1.14,1.14,0,0,0,9.48.14.45.45,0,0,0,9.18,0H0V11.32H.89a1.22,1.22,0,0,1,.77.27,1.07,1.07,0,0,1,.43.73l5.58,40h7L17,32.19l2.28,20.12h7l3.27-23.43c0,.14,0,.22,0,.22h5.83s.35-4.33,2.14-4.33c1.44,0,1.53,2.1,1.53,3.88V31a13.52,13.52,0,0,0-6.88,2.8c-2.1,1.78-3.7,4.79-3.7,9a14.06,14.06,0,0,0,2.28,8.1,5.38,5.38,0,0,0,4.07,2,7.8,7.8,0,0,0,3-.67,6.87,6.87,0,0,0,2-1.57s.23.39.43.78a4.81,4.81,0,0,0,.6.82h6.1s-.24-1.17-.42-2.19a23.9,23.9,0,0,1-.39-3.88m-7.3-2.08c-.22.89-.8,1.51-1.53,1.38-.37-.07-.77-.58-.94-1.07A5.65,5.65,0,0,1,36,42.11a7.13,7.13,0,0,1,.28-1.87,3.52,3.52,0,0,1,1.32-1.67,1.83,1.83,0,0,1,1.24-.38c.09.09.08.3.08,2.73a25.49,25.49,0,0,1-.1,3.24"/><path d="M90.61,36.43s0-5.1-.3-8.2c-.4-4.12-2.57-10.72-8.5-10.72-5.7,0-9.64,5.52-9.64,17.05,0,11.27,3.41,18.32,9.74,18.32,8.63,0,8.57-14.08,8.57-14.08H84.29s-.12,6.18-2,6.18c-2.25,0-2-8.55-2-8.55ZM81.77,25.16c1.88,0,1.58,5.51,1.58,5.51h-3s-.19-5.51,1.46-5.51"/><polygon points="75.11 17.98 67.21 17.98 63.42 27.98 63.42 17.98 56 17.98 56 52.31 63.42 52.31 63.42 40.02 67.36 52.31 75.22 52.31 68.88 32.69 75.11 17.98"/></g></g></svg>