<svg height="69.176" width="78.007" xmlns="http://www.w3.org/2000/svg" xmlns:xlink="http://www.w3.org/1999/xlink"><clipPath id="a"><path d="m0-75.412h78.007v69.176h-78.007z" transform="translate(0 75.412)"/></clipPath><g clip-path="url(#a)"><path d="m57.794 11.169c1.8 2.48 1.125 6.774.574 9.713-6.336 9.487-18.415 10.836-29.717 9.139-3.948-1.349-9.034-3.383-10.146-8.117a10.291 10.291 0 0 1 1.571-9.719c6.206-6.889 16.836-6.547 25.297-4.857 2.824 2.256 5.756 4.067 6.431 7.56 1.579 3.388-.562 7.016-3.712 8.588-5.661 3.494-10.061-4.408-15.022.564-2.947-.453-6.218-.911-7.571-3.725a5.575 5.575 0 0 1 -.567-2.712 2.6 2.6 0 0 1 2.712-1.138c1.47 1.359 1.355 3.282 3.166 4.415 2.371.111 4.621.111 5.982-2.154-.347-1.017.449-1.58 1.019-2.261 4.293-.216 2.6 5.437 6.994 4.864 1.814 0 3.168-1.808 3.838-3.162.228-2.6-1.235-4.52-2.693-6.441-5.543-4.851-14.685-2.481-20.45 0a8.5 8.5 0 0 0 -3.279 10.178c4.41 7.333 14.007 6.089 21.578 5.416 4.173-1.591 9.364-3.161 11.282-8.133.331-3.046-.111-7.111-2.707-9.719-5.987-6.884-15.462-7.116-24.169-5.868-5.756 1.47-11.623 3.956-15.134 9.713-1.464 4.4.221 8.923 2.708 12.417 7.69 7.349 18.411 10.618 29.024 7.454 7-1.244 14.8-4.964 17.29-12.3-.24-2.259.445-4.742 2.707-5.426 1.463.343 3.5-.9 4.292 1.011.9 6.554-3.05 11.41-7.571 15.141-13.656 6.994-35.124 8.348-47.316-2.708a23.736 23.736 0 0 1 -5.42-11.864c.111-4.964 3.392-9.035 7.569-11.853 12.2-7.01 33.091-8.58 41.44 5.985" fill="#2789cb"/><path d="m78.007 68.023a13.062 13.062 0 0 1 -3.043.78 31.107 31.107 0 0 1 -5.1.373q-7.291 0-11.91-3.333t-4.607-9.818v-1.081a11.689 11.689 0 0 1 4.683-9.684 18.482 18.482 0 0 1 11.74-3.655 38.282 38.282 0 0 1 5.071.278 14.942 14.942 0 0 1 3.166.718v4.151a15.274 15.274 0 0 0 -2.8-.7 24.664 24.664 0 0 0 -4.125-.3 9.168 9.168 0 0 0 -6.887 2.533 9.55 9.55 0 0 0 -2.479 6.983v.383q0 4.786 2.312 7.083a8.552 8.552 0 0 0 6.31 2.294 22.876 22.876 0 0 0 4.626-.4c1.275-.263 2.288-.516 3.043-.748z" fill="#2789cb"/><path d="m40.863 53.459a6.355 6.355 0 0 1 -3.2.74h-2.964v-8.446h2.536a7.234 7.234 0 0 1 3.773.736 2.534 2.534 0 0 1 1.144 2.281v2.6a2.3 2.3 0 0 1 -1.29 2.091m9.59-4.585a6.409 6.409 0 0 0 -2.286-4.876q-2.276-2.1-8.083-2.091h-13.522v26.8h8.138v-10.823h4.892c3.511 0 6.206-.579 8.068-1.74a5.7 5.7 0 0 0 2.793-5.155z" fill="#ff5623"/><path d="m21.963 45.903h-13.82v7.222h10.75v4.146h-10.75v11.444h-8.141v-26.8h21.961z" fill="#2789cb"/></g></svg>